<?xml version="1.0" encoding="UTF-8"?>
<svg width="43px" height="33px" viewBox="0 0 43 33" version="1.1" xmlns="http://www.w3.org/2000/svg" xmlns:xlink="http://www.w3.org/1999/xlink">
    <!-- Generator: Sketch 43.2 (39069) - http://www.bohemiancoding.com/sketch -->
    <title>camera</title>
    <desc>Created with Sketch.</desc>
    <defs></defs>
    <g id="Welcome" stroke="none" stroke-width="1" fill="none" fill-rule="evenodd">
        <g id="Desktop-HD" transform="translate(-1197.000000, -76.000000)" stroke="#4A4A4A" stroke-width="2" fill="#FFFFFF">
            <g id="Nav" transform="translate(1121.000000, 76.000000)">
                <g id="camera" transform="translate(77.000000, 1.000000)">
                    <path d="M27.5823,3.9327 L27.3453,2.7367 C27.0283,1.1457 25.6323,-0.0003 24.0103,-0.0003 L15.9523,-0.0003 C14.3103,-0.0003 12.9013,1.1757 12.6073,2.7917 L12.4003,3.9327 L3.3993,3.9327 C1.5213,3.9327 0.0003,5.4547 0.0003,7.3317 L0.0003,27.2197 C0.0003,29.0967 1.5213,30.6187 3.3993,30.6187 L36.7433,30.6187 C38.6213,30.6187 40.1443,29.0967 40.1443,27.2197 L40.1443,7.3317 C40.1443,5.4547 38.6213,3.9327 36.7433,3.9327 L27.5823,3.9327 Z" id="Fill-1"></path>
                    <path d="M7.77762924,13.4595998 L5.94320751,13.4595998 C5.01177153,13.4595998 4.2498,12.6976283 4.2498,11.7674292 L4.2498,9.93177055 C4.2498,9.00157153 5.01177153,8.2396 5.94320751,8.2396 L7.77762924,8.2396 C8.70906522,8.2396 9.46979979,9.00157153 9.46979979,9.93177055 L9.46979979,11.7674292 C9.46979979,12.6976283 8.70906522,13.4595998 7.77762924,13.4595998" id="Fill-6"></path>
                    <path d="M27.2805001,17.0465 C27.2805001,21.0286399 24.0526399,24.2565001 20.0705,24.2565001 C16.0883602,24.2565001 12.8605,21.0286399 12.8605,17.0465 C12.8605,13.0643602 16.0883602,9.8365 20.0705,9.8365 C24.0526399,9.8365 27.2805001,13.0643602 27.2805001,17.0465 Z" id="Stroke-4"></path>
                </g>
            </g>
        </g>
    </g>
</svg>