<?xml version="1.0" encoding="UTF-8"?>
<svg width="24px" height="34px" viewBox="0 0 24 34" version="1.1" xmlns="http://www.w3.org/2000/svg" xmlns:xlink="http://www.w3.org/1999/xlink">
    <!-- Generator: Sketch 43.2 (39069) - http://www.bohemiancoding.com/sketch -->
    <title>pen</title>
    <desc>Created with Sketch.</desc>
    <defs></defs>
    <g id="Welcome" stroke="none" stroke-width="1" fill="none" fill-rule="evenodd">
        <g id="Desktop-HD" transform="translate(-1138.000000, -74.000000)" stroke-width="2" stroke="#4A4A4A">
            <g id="Nav" transform="translate(1139.000000, 75.000000)">
                <g id="pen">
                    <rect id="Rectangle-4" x="3" y="28" width="15" height="4" rx="2"></rect>
                    <path d="M12.6017762,0.611258475 L12.6017762,10.3215417 C12.6017762,10.9116509 12.8304655,11.4843052 13.258045,11.904565 C14.0480623,12.679293 14.461782,13.8111748 14.2012148,15.034359 C13.9240158,16.3374328 12.8408604,17.3947956 11.495752,17.6673603 C9.20054369,18.1325999 7.17906951,16.4475328 7.17906951,14.3059535 C7.17906951,13.3741315 7.56437621,12.5336119 8.18738111,11.9166491 C8.61703966,11.4903473 8.85681685,10.917693 8.85681685,10.3215417 L8.85681685,0.611258475 C8.85681685,0.376960297 8.53387994,0.29707066 8.41814933,0.502501155 L0.521440956,14.4979571 C-0.0572120927,15.5244383 0.249785872,16.8033438 1.23522855,17.4793847 C2.48054535,18.3353451 3.98435028,19.8290799 4.49786155,22.2412098 C4.7203138,23.2891739 5.70575648,24.0222788 6.81039475,24.0222788 L14.6488913,24.0222788 C15.7535296,24.0222788 16.7375863,23.2898452 16.9614245,22.2418812 C17.4756288,19.8351219 18.9828987,18.3387018 20.2289085,17.4813987 C21.2115792,16.8053578 21.5171912,15.5271236 20.9385381,14.5019852 L13.0397507,0.502501155 C12.9240201,0.29707066 12.6017762,0.376960297 12.6017762,0.611258475" id="Fill-1"></path>
                </g>
            </g>
        </g>
    </g>
</svg>