<?xml version="1.0" encoding="UTF-8"?>
<svg width="29px" height="33px" viewBox="0 0 29 33" version="1.1" xmlns="http://www.w3.org/2000/svg" xmlns:xlink="http://www.w3.org/1999/xlink">
    <!-- Generator: Sketch 43.2 (39069) - http://www.bohemiancoding.com/sketch -->
    <title>profile</title>
    <desc>Created with Sketch.</desc>
    <defs></defs>
    <g id="Welcome" stroke="none" stroke-width="1" fill="none" fill-rule="evenodd">
        <g id="Artboard-Copy-2" transform="translate(-11.000000, -9.000000)" stroke="#4A4A4A" stroke-width="1.5">
            <g id="profile" transform="translate(12.000000, 9.000000)">
                <path d="M2.4721,31.8929 C0.8761,31.8929 -0.2939,30.4019 0.0651,28.8459 C1.4471,22.8489 6.8191,18.3769 13.2361,18.3769 C19.6531,18.3769 25.0251,22.8489 26.4071,28.8459 C26.7651,30.4019 25.5951,31.8929 23.9991,31.8929 L2.4721,31.8929 Z" id="Fill-4"></path>
                <path d="M20.3159,8.0794 C20.3159,11.9894 17.1459,15.1594 13.2359,15.1594 C9.3259,15.1594 6.1559,11.9894 6.1559,8.0794 C6.1559,4.1694 9.3259,0.9994 13.2359,0.9994 C17.1459,0.9994 20.3159,4.1694 20.3159,8.0794" id="Fill-1"></path>
            </g>
        </g>
    </g>
</svg>