<?xml version="1.0" encoding="UTF-8"?>
<svg width="42px" height="33px" viewBox="0 0 42 33" version="1.1" xmlns="http://www.w3.org/2000/svg" xmlns:xlink="http://www.w3.org/1999/xlink">
    <!-- Generator: Sketch 43.2 (39069) - http://www.bohemiancoding.com/sketch -->
    <title>cameraline</title>
    <desc>Created with Sketch.</desc>
    <defs></defs>
    <g id="Welcome" stroke="none" stroke-width="1" fill="none" fill-rule="evenodd">
        <g id="Desktop-HD" transform="translate(-1197.000000, -76.000000)" stroke="#4A4A4A" fill="#FFFFFF">
            <g id="Nav" transform="translate(1126.000000, 76.000000)">
                <g id="cameraline" transform="translate(72.000000, 1.000000)">
                    <path d="M27.5823,3.9327 L36.7433,3.9327 C38.6213,3.9327 40.1443,5.4547 40.1443,7.3317 L40.1443,27.2197 C40.1443,29.0967 38.6213,30.6187 36.7433,30.6187 L3.3993,30.6187 C1.5213,30.6187 0.0003,29.0967 0.0003,27.2197 L0.0003,7.3317 C0.0003,5.4547 1.5213,3.9327 3.3993,3.9327 L12.4003,3.9327 L12.6073,2.7917 C12.9013,1.1757 14.3103,-0.0003 15.9523,-0.0003 L24.0103,-0.0003 C25.6323,-0.0003 27.0283,1.1457 27.3453,2.7367 L27.5823,3.9327 Z M6.1018,11.4596 C6.8548,11.4596 7.4698,10.8436 7.4698,10.0916 L7.4698,8.6076 C7.4698,7.8556 6.8548,7.2396 6.1018,7.2396 L4.6188,7.2396 C3.8658,7.2396 3.2498,7.8556 3.2498,8.6076 L3.2498,10.0916 C3.2498,10.8436 3.8658,11.4596 4.6188,11.4596 L6.1018,11.4596 Z M28.2825,17.0475 C28.2825,12.5125 24.6065,8.8365 20.0715,8.8365 C15.5365,8.8365 11.8605,12.5125 11.8605,17.0475 C11.8605,21.5825 15.5365,25.2585 20.0715,25.2585 C24.6065,25.2585 28.2825,21.5825 28.2825,17.0475 Z" id="Combined-Shape"></path>
                </g>
            </g>
        </g>
    </g>
</svg>